# xmcd CD database file
#
# Track frame offsets:
#	150
#	23865
#	47683
#	61990
#	112592
#	132674
#	153258
#	191894
#	235847
#	247334
#	269795
#
# Disc length: 3915 seconds
#
# Revision: 1
# Processed by: cddbd v1.5.2PL0 Copyright (c) Steve Scherf et al.
# Submitted via: CDex 1.70beta2
#
DISCID=9f0f490b
DTITLE=Dean Evenson and Pushkar - Tantra Love
DYEAR=2007
DGENRE=New Age
TTITLE0=01. This little Flame
TTITLE1=02. Tantra Love
TTITLE2=03. Wondering
TTITLE3=04. Soft Summer Serenade
TTITLE4=05. Heartland Flight
TTITLE5=06. Eagle Salmon Swirl
TTITLE6=07. We Three Kings
TTITLE7=08. Ocean Dreams
TTITLE8=09. Ocean Dreams 2
TTITLE9=10. View
TTITLE10=11. General Sea
EXTD=YEAR: 2007
EXTT0=
EXTT1=
EXTT2=
EXTT3=
EXTT4=
EXTT5=
EXTT6=
EXTT7=
EXTT8=
EXTT9=
EXTT10=
PLAYORDER=
